<?xml version="1.0" standalone="no"?>
<!DOCTYPE svg PUBLIC "-//W3C//DTD SVG 20010904//EN"
 "http://www.w3.org/TR/2001/REC-SVG-20010904/DTD/svg10.dtd">
<svg version="1.0" xmlns="http://www.w3.org/2000/svg"
 width="339.000000pt" height="339.000000pt" viewBox="0 0 339.000000 339.000000"
 preserveAspectRatio="xMidYMid meet">
<metadata>
Created by potrace 1.11, written by Peter Selinger 2001-2013
</metadata>
<g transform="translate(0.000000,339.000000) scale(0.100000,-0.100000)"
fill="#000000" stroke="none">
<path d="M635 3220 l56 -56 1294 0 1294 1 50 52 c28 28 51 53 51 55 0 3 -630
5 -1401 5 l-1400 0 56 -57z"/>
<path d="M701 3102 c-7 -2 -11 -32 -11 -73 0 -59 3 -69 18 -70 9 0 26 -3 37
-5 61 -13 156 -16 621 -19 281 -1 515 -5 521 -8 5 -3 9 -54 9 -114 l-1 -108
-515 0 -515 0 -5 89 c-4 69 -8 90 -20 91 -8 1 -47 5 -86 9 -39 4 -82 9 -95 12
-13 2 -49 7 -79 9 -30 3 -75 8 -100 11 -25 4 -58 8 -75 9 -16 2 -30 4 -30 5 0
1 -20 3 -45 5 -25 2 -65 6 -90 10 -70 9 -90 12 -167 20 l-73 7 0 -1312 c0
-1244 1 -1311 18 -1306 26 7 246 60 257 61 6 1 21 4 35 8 26 7 194 47 220 52
8 2 42 10 76 19 33 8 71 18 85 20 13 2 24 5 24 6 0 1 9 3 20 5 11 2 31 6 45 9
14 3 37 8 53 12 l27 6 0 96 c0 53 2 522 3 1042 l2 945 80 2 c44 1 82 -2 85 -7
3 -5 5 -56 5 -114 -1 -103 -2 -106 -30 -136 l-29 -31 -1 -566 c0 -631 -2 -612
67 -631 33 -9 46 -5 83 23 20 15 20 29 23 577 2 583 0 617 -39 638 -17 10 -19
23 -19 128 l0 118 113 -1 112 0 3 -113 3 -113 -31 -30 -30 -30 0 -656 c0 -421
4 -662 10 -674 12 -21 41 -39 76 -45 33 -6 84 44 84 83 1 47 1 1226 1 1261 -1
23 -10 43 -30 62 -28 28 -28 30 -27 142 l1 113 108 0 c60 0 111 -4 115 -9 3
-5 6 -55 7 -110 1 -99 0 -102 -30 -136 l-30 -35 0 -657 0 -658 27 -26 c42 -42
112 -35 134 14 12 26 13 1313 1 1337 -5 10 -18 26 -28 35 -16 13 -19 30 -20
120 0 58 0 110 0 115 1 7 43 10 114 10 l112 -1 0 -1059 0 -1060 -495 -1 c-419
-1 -502 -3 -540 -16 -25 -9 -71 -21 -103 -29 -45 -9 -58 -17 -62 -33 -2 -12
-3 -88 -2 -171 l2 -150 85 0 85 0 0 85 0 85 518 1 517 1 0 -87 0 -87 83 2 c45
1 84 3 87 4 3 0 5 38 5 83 l0 83 515 0 515 0 0 -83 c-1 -95 -5 -92 105 -89
l65 2 3 1490 2 1491 -1279 0 c-704 0 -1284 -2 -1290 -4z m2335 -174 c7 -5 12
-2292 5 -2388 -1 -13 -60 -15 -478 -13 -263 1 -481 2 -485 2 -12 1 -10 2399 2
2403 17 5 946 1 956 -4z"/>
<path d="M2128 2866 c-3 -9 -2 -2234 1 -2273 1 -10 94 -13 431 -13 l430 0 -2
1148 -3 1147 -427 1 c-312 1 -428 -1 -430 -10z m216 -1026 c54 -53 -15 -141
-83 -105 -48 25 -55 72 -15 111 28 29 65 27 98 -6z"/>
</g>
</svg>
